# xmcd
#
# Track frame offsets: 
#        150
#        17510
#        33295
#        47345
#        62896
#        79739
#        89946
#        110393
#        123477
#        142045
#        158311
#        175530
#        188874
#        200458
#
# Disc length: 3094 seconds
#
# Revision: 0
# Processed by: cddbd v1.5.2PL0 Copyright (c) Steve Scherf et al.
# Submitted via: ExactAudioCopyFreeDBPlugin 1.0
#
DISCID=b10c140e
DTITLE=Red Back Spyders - Too Hot To Handle
DYEAR=1900
DGENRE=
TTITLE0=1952 Vincent Black Lightning
TTITLE1=Chrome
TTITLE2=Loose Control
TTITLE3=Cry Cry Cry
TTITLE4=Hot Wind
TTITLE5=Lock, Stock and Barrel
TTITLE6=Buzzz Bullett
TTITLE7=Love Potion No 9
TTITLE8=Something's going on
TTITLE9=Greaser
TTITLE10=Don't Move
TTITLE11=A Perfect Match
TTITLE12=The Electrified Donkey
TTITLE13=Hillbillies Hotline
EXTD=
EXTT0=
EXTT1=
EXTT2=
EXTT3=
EXTT4=
EXTT5=
EXTT6=
EXTT7=
EXTT8=
EXTT9=
EXTT10=
EXTT11=
EXTT12=
EXTT13=
PLAYORDER=
